# xmcd
#
# Track frame offsets: 
#        150
#        15982
#        32176
#        48434
#        63909
#        81573
#        94026
#        109144
#        126646
#        140232
#        154700
#
# Disc length: 2193 seconds
#
# Revision: 0
# Processed by: cddbd v1.5.2PL0 Copyright (c) Steve Scherf et al.
# Submitted via: ExactAudioCopy v0.99pb1
#
DISCID=98088f0b
DTITLE=Ryan Shupe and The Rubberband - Dream Big
DYEAR=2005
DGENRE=Country
TTITLE0=Banjo Boy
TTITLE1=Even Superman
TTITLE2=Dream Big
TTITLE3=Simplify
TTITLE4=Would You Love Me
TTITLE5=Ambush
TTITLE6=New Emotion
TTITLE7=Rain Falls Down
TTITLE8=Never Give Up
TTITLE9=Oh How I Miss You
TTITLE10=Hey Hey Hey
EXTD=
EXTT0=
EXTT1=
EXTT2=
EXTT3=
EXTT4=
EXTT5=
EXTT6=
EXTT7=
EXTT8=
EXTT9=
EXTT10=
PLAYORDER=
